<?xml version="1.0" encoding="iso-8859-1"?><!-- Generator: Adobe Illustrator 16.0.0, SVG Export Plug-In . SVG Version: 6.00 Build 0) --><!DOCTYPE svg PUBLIC "-//W3C//DTD SVG 1.1//EN" "http://www.w3.org/Graphics/SVG/1.1/DTD/svg11.dtd"><svg version="1.1" id="Layer_1" xmlns="http://www.w3.org/2000/svg" xmlns:xlink="http://www.w3.org/1999/xlink" x="0px" y="0px" width="435.816px" height="437.46px" viewBox="0 0 435.816 437.46" style="enable-background:new 0 0 435.816 437.46;" xml:space="preserve"><path style="fill:#C6352E;" d="M217.341,0.039c0,0,128.478-5.783,196.57,123.337c-35.976,0-207.495,0-207.495,0	s-39.188-1.289-72.593,46.255c-9.634,19.916-19.91,40.473-8.349,80.937C108.773,222.309,36.823,97.04,36.823,97.04	S87.578,5.176,217.341,0.039z"/><path style="fill:#F4D911;" d="M407.223,327.871c0,0-59.247,114.143-205.118,108.533c17.995-31.148,103.772-179.682,103.772-179.682	s20.709-33.289-3.744-85.991c-12.431-18.305-25.09-37.486-65.919-47.713c32.836-0.326,177.285,0.021,177.285,0.021	S467.667,212.93,407.223,327.871z"/><path style="fill:#81B354;" d="M28.373,328.738c0,0-69.224-108.395,8.58-231.908c17.979,31.16,103.71,179.72,103.71,179.72	s18.469,34.578,76.341,39.756c22.061-1.609,45.007-2.982,74.279-33.223c-16.139,28.594-88.673,153.521-88.673,153.521	S97.681,438.56,28.373,328.738z"/><path style="fill:#7BAA50;" d="M202.105,437.46l29.187-121.793c0,0,32.092-2.504,58.982-32.017	C273.581,313.015,202.105,437.46,202.105,437.46z"/><path style="fill:#FFFFFF;" d="M119.59,220.093c0-53.69,43.52-97.215,97.215-97.215c53.69,0,97.214,43.524,97.214,97.215	c0,53.693-43.522,97.219-97.214,97.219C163.11,317.312,119.59,273.787,119.59,220.093z"/><linearGradient id="SVGID_1_" gradientUnits="userSpaceOnUse" x1="-829.1277" y1="1417.3394" x2="-829.1277" y2="1261.4412" gradientTransform="matrix(1 0 0 -1 1045.9302 1557.6357)"><stop offset="0" style="stop-color:#A2C0E6"/><stop offset="1" style="stop-color:#406CB1"/></linearGradient><path style="fill:url(#SVGID_1_);" d="M135.86,220.093c0-44.702,36.238-80.941,80.945-80.941c44.698,0,80.94,36.239,80.94,80.941	c0,44.703-36.242,80.945-80.94,80.945C172.098,301.039,135.86,264.794,135.86,220.093z"/><path style="fill:#E7CE12;" d="M413.5,123.039l-120.183,35.237c0,0-18.123-26.596-57.104-35.258	C269.989,122.903,413.5,123.039,413.5,123.039z"/><path style="fill:#BC332C;" d="M123.137,246.197c-16.89-29.25-86.31-149.16-86.31-149.16l89.029,88.07c0,0-9.149,18.82-5.68,45.7	L123.137,246.197z"/></svg>