<?xml version="1.0" encoding="UTF-8" standalone="no"?>
<svg width="509px" height="677px" viewBox="0 0 509 677" version="1.1" xmlns="http://www.w3.org/2000/svg" xmlns:xlink="http://www.w3.org/1999/xlink">
    <!-- Generator: Sketch 40.1 (33804) - http://www.bohemiancoding.com/sketch -->
    <title>Logo3</title>
    <desc>Created with Sketch.</desc>
    <defs></defs>
    <g id="Page-1" stroke="none" stroke-width="1" fill="none" fill-rule="evenodd">
        <g id="Logo3" transform="translate(-23.000000, -18.000000)">
            <g id="Page-1">
                <g id="Raspberry_Pi_Logo">
                    <g id="Group">
                        <path d="M152.38,0.6562 C148.7607,0.76852 144.8628,2.1055 140.442,5.5937 C129.612,1.4174 119.112,-0.0334 109.722,8.4688 C95.222,6.588 90.51,10.469 86.94,15 C83.757,14.934 63.121,11.728 53.658,25.844 C29.877,23.03 22.361,39.832 30.877,55.5 C26.0201,63.019 20.9875,70.447 32.3458,84.781 C28.3278,92.7645 30.8184,101.425 40.2833,111.906 C37.7854,123.129 42.6954,131.047 51.5023,137.218 C49.8552,152.576 65.5863,161.505 70.2833,164.687 C72.087,173.6357 75.8462,182.08 93.8143,186.749 C96.7775,200.085 107.5763,202.388 118.0333,205.187 C83.4713,225.277 53.8323,251.71 54.0333,316.567 L48.9708,325.5982 C9.3408,349.6982 -26.3142,427.1582 29.4408,490.1182 C33.0827,509.8262 39.1904,523.9822 44.6288,539.6492 C52.7626,602.7802 105.8468,632.3412 119.8478,635.8372 C140.3648,651.4652 162.2158,666.2942 191.7858,676.6812 C219.6608,705.4302 249.8598,716.3872 280.2238,716.3692 C280.66895,716.36892 281.12233,716.3742 281.5676,716.3692 C311.9316,716.3881 342.1296,705.4312 370.0056,676.6812 C399.5746,666.2942 421.4266,651.4652 441.9436,635.8372 C455.9446,632.3413 509.0286,602.7802 517.1626,539.6492 C522.6005,523.9822 528.7086,509.8262 532.3506,490.1182 C588.1046,427.1532 552.4506,349.6882 512.8196,325.5882 L507.7496,316.5582 C507.95027,251.7062 478.3116,225.2732 443.7496,205.1782 C454.2066,202.3798 465.0056,200.0768 467.9686,186.7402 C485.9366,182.0704 489.6966,173.6262 491.4996,164.6782 C496.1974,161.4969 511.9276,152.5672 510.2806,137.2092 C519.0873,131.0376 523.9976,123.1192 521.4996,111.8972 C530.9645,101.4162 533.4556,92.7562 529.4371,84.7722 C540.7971,70.4442 535.7571,63.0162 530.9071,55.4972 C539.4171,39.8292 531.9071,23.0272 508.1171,25.8412 C498.6571,11.7252 478.0271,14.9312 474.8371,14.9972 C471.2671,10.4662 466.5571,6.5852 452.0571,8.466 C442.6671,-0.0362 432.1671,1.4146 421.3371,5.591 C408.4771,-4.557 399.9671,3.5777 390.2471,6.6534 C374.6771,1.5657 371.1171,8.5344 363.4671,11.3722 C346.4871,7.7841 341.3271,15.5962 333.1871,23.8412 L323.7183,23.6537 C298.1073,38.7467 285.3843,69.4797 280.8743,85.2787 C276.3622,69.4767 263.6683,38.7437 238.0623,23.6537 L228.5935,23.8412 C220.4435,15.5962 215.2835,7.7842 198.3035,11.3722 C190.6535,8.5344 187.1035,1.5657 171.5235,6.6534 C165.1438,4.6349 159.2765,0.439 152.3675,0.6534 L152.38,0.6562 L152.38,0.6562 Z" id="Shape"></path>
                        <path d="M101.39,67.056 C169.338,102.087 208.84,130.425 230.48,154.56 C219.398,198.978 161.584,201.005 140.444,199.759 C144.7724,197.7443 148.3839,195.3312 149.6645,191.6233 C144.36,187.8535 125.5515,191.22611 112.4205,183.8491 C117.4646,182.8041 119.824,181.7861 122.1834,178.0637 C109.7774,174.107 96.4144,170.6973 88.5554,164.1427 C92.7967,164.1951 96.7566,165.0915 102.2954,161.25 C91.1834,155.2618 79.3264,150.516 70.1144,141.363 C75.8596,141.22237 82.0534,141.3062 83.8544,139.1935 C73.6844,132.8928 65.1034,125.8855 58.0004,118.2215 C66.0404,119.19202 69.4354,118.35628 71.3794,116.9559 C63.6916,109.0817 53.9614,102.4329 49.3224,92.7299 C55.292,94.7874 60.7534,95.575 64.6904,92.5491 C62.078,86.6556 50.8854,83.1795 44.4414,69.4071 C50.7258,70.01648 57.3914,70.7782 58.7244,69.4071 C55.8074,57.5231 50.8024,50.8421 45.8934,43.9201 C59.3434,43.7201 79.7214,43.9721 78.7984,42.8351 L70.4819,34.3378 C83.6199,30.8006 97.0629,34.90596 106.8219,37.9537 C111.2038,34.496 106.7443,30.1237 101.3981,25.6597 C112.5631,27.1503 122.6521,29.7171 131.7711,33.2531 C136.6435,28.8538 128.6072,24.4544 124.7201,20.0551 C141.9691,23.3277 149.2771,27.9258 156.5401,32.5301 C161.8095,27.4793 156.84176,23.1868 153.2858,18.7901 C166.2918,23.6071 172.9908,29.8261 180.0438,35.9651 C182.435,32.738 186.1187,30.3727 181.671,22.5861 C190.9052,27.9088 197.86,34.1811 203.005,41.2081 C208.7184,37.5702 206.4089,32.5951 206.4401,28.0101 C216.0367,35.8166 222.1271,44.1241 229.5821,52.2361 C231.0838,51.1427 232.3987,47.4344 233.5596,41.5691 C256.4546,63.7811 288.8056,119.7271 241.8761,141.9091 C201.9361,108.9691 154.2361,85.0261 101.3761,67.0651 L101.39,67.056 L101.39,67.056 Z" id="Shape" fill="#FFFFFF"></path>
                        <path d="M461.92,67.056 C393.98,102.09 354.48,130.42 332.84,154.56 C343.922,198.978 401.736,201.005 422.876,199.759 C418.5476,197.7443 414.9361,195.3312 413.6555,191.6233 C418.96,187.8535 437.7685,191.22611 450.8995,183.8491 C445.8554,182.8041 443.496,181.7861 441.1366,178.0637 C453.5426,174.107 466.9056,170.6973 474.7646,164.1427 C470.5233,164.1951 466.5634,165.0915 461.0246,161.25 C472.1366,155.2618 483.9936,150.516 493.2056,141.363 C487.4604,141.22237 481.2666,141.3062 479.4656,139.1935 C489.6356,132.8928 498.2166,125.8855 505.3196,118.2215 C497.2796,119.19202 493.8846,118.35628 491.9406,116.9559 C499.6284,109.0817 509.3586,102.4329 513.9976,92.7299 C508.028,94.7874 502.5666,95.575 498.6296,92.5491 C501.242,86.6556 512.4346,83.1795 518.8786,69.4071 C512.5942,70.01648 505.9286,70.7782 504.5956,69.4071 C507.5179,57.5181 512.5231,50.8371 517.4316,43.9151 C503.9816,43.71537 483.6036,43.96745 484.5266,42.8303 L492.8431,34.333 C479.7051,30.7958 466.2621,34.90116 456.5031,37.9489 C452.1212,34.4912 456.5807,30.1189 461.9269,25.6549 C450.7619,27.1455 440.6729,29.7123 431.5539,33.2483 C426.6815,28.849 434.7178,24.4496 438.6049,20.0503 C421.3559,23.3229 414.0479,27.921 406.7849,32.5253 C401.5155,27.4745 406.48324,23.182 410.0392,18.7853 C397.0332,23.6023 390.3342,29.8213 383.2812,35.9603 C380.89,32.7332 377.2063,30.3679 381.654,22.5813 C372.4198,27.904 365.465,34.1763 360.32,41.2033 C354.6066,37.5654 356.9161,32.5903 356.8849,28.0053 C347.2883,35.8118 341.1979,44.1193 333.7429,52.2313 C332.2412,51.1379 330.9263,47.4296 329.7654,41.5643 C306.8704,63.7763 274.5194,119.7223 321.4489,141.9043 C361.3679,108.9573 409.0649,85.0163 461.9289,67.0553 L461.92,67.056 L461.92,67.056 Z" id="Shape" fill="#FFFFFF"></path>
                        <path d="M363.941141,519.361753 C364.09498,546.268926 348.616094,571.193099 323.371111,584.687803 C298.126127,598.182507 266.978547,598.182507 241.733564,584.687803 C216.48858,571.193099 201.009694,546.268926 201.163533,519.361753 C201.009694,492.45458 216.48858,467.530407 241.733564,454.035703 C266.978547,440.540999 298.126127,440.540999 323.371111,454.035703 C348.616094,467.530407 364.09498,492.45458 363.941141,519.361753 L363.941141,519.361753 L363.941141,519.361753 Z" id="Shape" fill="#FFFFFF"></path>
                        <path d="M274.102272,376.822826 C274.102273,402.90352 257.686376,427.003076 231.038291,440.043423 C204.390207,453.083771 171.558413,453.083771 144.910328,440.043423 C118.262244,427.003076 101.846347,402.90352 101.846348,376.822826 C101.846347,350.742131 118.262243,326.642575 144.910328,313.602227 C171.558413,300.56188 204.390207,300.56188 231.038292,313.602227 C257.686376,326.642575 274.102273,350.742131 274.102272,376.822826 L274.102272,376.822826 L274.102272,376.822826 Z" id="Shape" fill="#FFFFFF" transform="translate(187.974310, 376.822825) rotate(-56.542503) translate(-187.974310, -376.822825) "></path>
                        <path d="M417.029892,436.043422 C390.381807,449.08377 357.550013,449.08377 330.901929,436.043422 C304.253844,423.003075 287.837947,398.903519 287.837948,372.822825 C287.837947,346.74213 304.253844,322.642574 330.901928,309.602226 C357.550013,296.561879 390.381807,296.561879 417.029892,309.602226 C443.677977,322.642574 460.093873,346.74213 460.093872,372.822825 C460.093873,398.903519 443.677976,423.003075 417.029892,436.043422 Z" id="Shape" fill="#FFFFFF" transform="translate(373.965910, 372.822825) rotate(236.542503) translate(-373.965910, -372.822825) "></path>
                        <path d="M66.91,341.09 C103.32,331.33 79.202,491.72 49.577,478.56 C16.99,452.35 6.494,375.59 66.91,341.09 L66.91,341.09 L66.91,341.09 Z" id="Shape" fill="#FFFFFF"></path>
                        <path d="M487.68,339.09 C451.266,329.3331 475.388,489.73 505.013,476.57 C537.6,450.357 548.096,373.59 487.68,339.09 L487.68,339.09 L487.68,339.09 Z" id="Shape" fill="#FFFFFF"></path>
                        <path d="M363.97,219.65 C426.805,209.04 479.09,246.372 476.98,314.508 C474.9131,340.629 340.82,223.539 363.97,219.65 L363.97,219.65 L363.97,219.65 Z" id="Shape" fill="#FFFFFF"></path>
                        <path d="M190.36,217.65 C127.52,207.04 75.24,244.38 77.35,312.51 C79.417,338.63 213.51,221.54 190.36,217.65 L190.36,217.65 L190.36,217.65 Z" id="Shape" fill="#FFFFFF"></path>
                        <path d="M280.62,201.76 C243.117,200.78452 207.125,229.594 207.038,246.304 C206.93338,266.608 236.689,287.397 280.875,287.924 C325.998,288.24721 354.791,271.284 354.936,250.33 C355.10084,226.59 313.897,201.393 280.619,201.759 L280.62,201.76 L280.62,201.76 Z" id="Shape" fill="#FFFFFF"></path>
                        <path d="M282.91,618.12 C315.607,616.6929 359.481,628.652 359.567,644.516 C360.1097,659.921 319.777,694.727 280.741,694.054 C240.314,695.7979 200.672,660.938 201.191,648.855 C200.58594,631.139 250.417,617.307 282.91,618.12 L282.91,618.12 L282.91,618.12 Z" id="Shape" fill="#FFFFFF"></path>
                        <path d="M162.14,524.1 C185.419,552.146 196.031,601.419 176.604,615.944 C158.225,627.032 113.592,622.4656 81.868,576.892 C60.473,538.65 63.23,499.735 78.2521,488.303 C100.7161,474.619 135.4251,493.102 162.1411,524.1 L162.14,524.1 L162.14,524.1 Z" id="Shape" fill="#FFFFFF"></path>
                        <path d="M399.02,515.21 C373.833,544.712 359.808,598.52 378.182,615.85 C395.75,629.314 442.911,627.432 477.748,579.094 C503.044,546.629 494.568,492.412 480.1188,478.014 C458.6548,461.412 427.8418,482.6589 399.0198,515.202 L399.02,515.21 L399.02,515.21 Z" id="Shape" fill="#FFFFFF"></path>
                    </g>
                </g>
            </g>
        </g>
    </g>
</svg>